<?xml version="1.0" standalone="no"?>
<!DOCTYPE svg PUBLIC "-//W3C//DTD SVG 20010904//EN"
 "http://www.w3.org/TR/2001/REC-SVG-20010904/DTD/svg10.dtd">
<svg version="1.0" xmlns="http://www.w3.org/2000/svg"
 width="751.000000pt" height="751.000000pt" viewBox="0 0 751.000000 751.000000"
 preserveAspectRatio="xMidYMid meet">
<metadata>
Created by potrace 1.14, written by Peter Selinger 2001-2017
</metadata>
<g transform="translate(0.000000,751.000000) scale(0.100000,-0.100000)"
fill="#000000" stroke="none">
<path d="M2566 7358 c2 -18 6 -51 9 -73 2 -22 7 -65 11 -95 3 -30 8 -58 10
-62 4 -6 -16 -12 -76 -22 -35 -6 -339 -64 -370 -71 -14 -3 -38 -8 -55 -10 -16
-3 -120 -23 -231 -45 -240 -47 -245 -48 -264 -49 -40 -3 -40 -14 -6 -144 l33
-128 -21 -14 c-11 -8 -24 -15 -28 -15 -4 0 -37 -13 -72 -30 -36 -16 -91 -40
-123 -54 -32 -13 -87 -37 -123 -53 -36 -17 -114 -51 -175 -78 -60 -27 -137
-60 -170 -75 -33 -15 -74 -33 -91 -40 l-31 -14 83 -250 c88 -264 88 -260 69
-386 -2 -14 -7 -74 -10 -135 -4 -60 -8 -137 -11 -170 -8 -144 -2 -739 10 -945
3 -41 8 -133 11 -205 3 -71 8 -148 10 -170 4 -46 15 -186 20 -260 9 -139 18
-222 26 -236 33 -65 92 -242 94 -289 2 -30 6 -111 10 -180 4 -69 8 -141 10
-160 2 -19 6 -71 10 -115 4 -44 9 -93 11 -110 2 -16 6 -55 9 -85 13 -131 34
-265 61 -400 9 -41 18 -86 20 -100 3 -14 16 -68 29 -120 141 -561 335 -912
659 -1188 43 -37 84 -72 90 -77 25 -23 158 -116 237 -165 211 -133 571 -284
819 -345 122 -30 200 -48 220 -51 14 -2 45 -9 70 -14 54 -11 169 -31 275 -46
91 -14 226 -9 319 11 12 2 39 7 61 10 109 15 315 58 435 91 56 15 307 98 390
129 51 18 331 156 372 183 14 9 48 30 75 46 178 107 414 308 529 451 166 205
304 490 399 819 42 147 97 400 109 501 4 28 8 61 11 75 8 42 14 83 20 135 3
28 8 66 10 85 18 138 33 331 40 530 3 90 9 120 39 203 20 54 38 117 40 140 10
86 15 134 21 207 3 41 8 91 10 110 2 19 7 82 10 140 34 546 37 948 11 1460 -2
30 -7 102 -12 160 -12 153 -13 147 55 375 77 259 100 339 98 342 -2 2 -99 46
-267 123 -535 244 -530 241 -530 264 0 12 5 50 10 86 5 36 12 94 15 130 l7 66
-49 1 c-26 0 -93 3 -148 7 -55 4 -149 9 -210 11 -60 3 -137 7 -170 10 -33 3
-114 7 -180 10 -66 3 -154 8 -195 10 -41 2 -121 7 -178 11 -96 5 -110 9 -207
54 -194 91 -535 200 -706 225 -24 4 -46 8 -49 10 -3 2 -30 6 -60 10 -30 4 -57
8 -60 10 -5 3 -46 9 -135 20 -41 5 -84 9 -215 20 -41 4 -88 9 -105 11 -16 2
-175 7 -351 10 l-321 5 3 -33z"/>
</g>
</svg>
